<svg width="31" height="31" viewBox="0 0 31 31" fill="none" xmlns="http://www.w3.org/2000/svg">
<path d="M20.8334 20.4771C19.7288 20.4771 18.8334 21.3725 18.8334 22.4771C18.8334 23.5817 19.7288 24.4771 20.8334 24.4771C21.9379 24.4771 22.8334 23.5817 22.8334 22.4771C22.8334 21.3725 21.9379 20.4771 20.8334 20.4771ZM20.8334 20.4771H11.2007C10.703 20.4771 10.2811 20.1112 10.2107 19.6185L9.9048 17.4771M5.83337 6.47711H8.33337L8.61909 8.47711M8.61909 8.47711L9.9048 17.4771M8.61909 8.47711H24.8334L21.8334 17.4771H9.9048M14.8334 22.4771C14.8334 23.5817 13.9379 24.4771 12.8334 24.4771C11.7288 24.4771 10.8334 23.5817 10.8334 22.4771C10.8334 21.3725 11.7288 20.4771 12.8334 20.4771C13.9379 20.4771 14.8334 21.3725 14.8334 22.4771Z" stroke="#915731" stroke-width="1.5" stroke-linecap="round" stroke-linejoin="round"/>
</svg>
