<svg width="31" height="31" viewBox="0 0 31 31" fill="none" xmlns="http://www.w3.org/2000/svg">
<path d="M20.8335 20.4771C19.7289 20.4771 18.8335 21.3725 18.8335 22.4771C18.8335 23.5816 19.7289 24.4771 20.8335 24.4771C21.9381 24.4771 22.8335 23.5816 22.8335 22.4771C22.8335 21.3725 21.9381 20.4771 20.8335 20.4771ZM20.8335 20.4771H11.2008C10.7031 20.4771 10.2812 20.1111 10.2108 19.6185L9.90492 17.4771M5.8335 6.47705H8.3335L8.61921 8.47705M8.61921 8.47705L9.90492 17.4771M8.61921 8.47705H24.8335L21.8335 17.4771H9.90492M14.8335 22.4771C14.8335 23.5816 13.9381 24.4771 12.8335 24.4771C11.7289 24.4771 10.8335 23.5816 10.8335 22.4771C10.8335 21.3725 11.7289 20.4771 12.8335 20.4771C13.9381 20.4771 14.8335 21.3725 14.8335 22.4771Z" stroke="#915731" stroke-width="1.5" stroke-linecap="round" stroke-linejoin="round"/>
</svg>
