<svg width="30" height="30" viewBox="0 0 30 30" fill="none" xmlns="http://www.w3.org/2000/svg">
<path d="M14.85 6.58976H15.53C15.6407 7.87871 16.2031 9.08715 17.1178 10.0019C18.0326 10.9167 19.2411 11.479 20.53 11.5898C20.6379 12.4287 20.9749 13.2217 21.5042 13.8815C22.0335 14.5413 22.7344 15.0425 23.53 15.3298C23.4726 17.5448 22.5515 19.6497 20.9633 21.1949C19.3751 22.7401 17.2458 23.6031 15.03 23.5998C12.7765 23.5971 10.616 22.7007 9.02252 21.1073C7.42904 19.5138 6.53265 17.3533 6.53001 15.0998C6.56778 12.9418 7.39286 10.872 8.85001 9.27977C9.60436 8.43353 10.5285 7.75573 11.5623 7.29052C12.5961 6.82531 13.7164 6.58313 14.85 6.57977V6.58976ZM14.85 5.07977C8.94001 5.07977 5 10.2698 5 15.0798C5.02387 17.7319 6.10033 20.266 7.99258 22.1245C9.88482 23.983 12.4378 25.0136 15.09 24.9898C17.7422 24.9659 20.2762 23.8894 22.1347 21.9972C23.9932 20.105 25.0239 17.5519 25 14.8998C24.9909 14.689 24.9154 14.4866 24.7843 14.3213C24.6532 14.1561 24.4732 14.0365 24.27 13.9798C23.626 13.8125 23.0541 13.4399 22.6408 12.9184C22.2276 12.3969 21.9956 11.7549 21.98 11.0898C21.9805 10.8346 21.8834 10.589 21.7086 10.4031C21.5339 10.2172 21.2947 10.1051 21.04 10.0898H20.97C19.9091 10.0898 18.8917 9.66834 18.1416 8.91819C17.3914 8.16804 16.97 7.15063 16.97 6.08976C16.9731 5.85007 16.89 5.61725 16.7358 5.4337C16.5816 5.25016 16.3666 5.1281 16.13 5.08976C15.6952 5.03852 15.2578 5.01182 14.82 5.00977L14.85 5.07977Z" fill="#915831"/>
<path d="M13.8799 16.9197C14.5702 16.9197 15.1299 16.36 15.1299 15.6697C15.1299 14.9793 14.5702 14.4197 13.8799 14.4197C13.1895 14.4197 12.6299 14.9793 12.6299 15.6697C12.6299 16.36 13.1895 16.9197 13.8799 16.9197Z" fill="#915831"/>
<path d="M14.2402 11.8597C14.9306 11.8597 15.4902 11.3001 15.4902 10.6097C15.4902 9.91939 14.9306 9.35974 14.2402 9.35974C13.5499 9.35974 12.9902 9.91939 12.9902 10.6097C12.9902 11.3001 13.5499 11.8597 14.2402 11.8597Z" fill="#915831"/>
<path d="M9.75977 14.5997C10.4501 14.5997 11.0098 14.0401 11.0098 13.3497C11.0098 12.6594 10.4501 12.0997 9.75977 12.0997C9.06941 12.0997 8.50977 12.6594 8.50977 13.3497C8.50977 14.0401 9.06941 14.5997 9.75977 14.5997Z" fill="#915831"/>
<path d="M11.0098 20.7097C11.7001 20.7097 12.2598 20.1501 12.2598 19.4597C12.2598 18.7694 11.7001 18.2097 11.0098 18.2097C10.3194 18.2097 9.75977 18.7694 9.75977 19.4597C9.75977 20.1501 10.3194 20.7097 11.0098 20.7097Z" fill="#915831"/>
<path d="M19.9302 16.9197C20.6205 16.9197 21.1802 16.36 21.1802 15.6697C21.1802 14.9793 20.6205 14.4197 19.9302 14.4197C19.2398 14.4197 18.6802 14.9793 18.6802 15.6697C18.6802 16.36 19.2398 16.9197 19.9302 16.9197Z" fill="#915831"/>
<path d="M17.8398 21.1398C18.5302 21.1398 19.0898 20.5801 19.0898 19.8898C19.0898 19.1994 18.5302 18.6398 17.8398 18.6398C17.1495 18.6398 16.5898 19.1994 16.5898 19.8898C16.5898 20.5801 17.1495 21.1398 17.8398 21.1398Z" fill="#915831"/>
</svg>
